<?xml version="1.0" encoding="utf-8"?>
<!-- Generator: Adobe Illustrator 14.0.0, SVG Export Plug-In . SVG Version: 6.00 Build 43363)  -->
<!DOCTYPE svg PUBLIC "-//W3C//DTD SVG 1.0//EN" "http://www.w3.org/TR/2001/REC-SVG-20010904/DTD/svg10.dtd">
<svg version="1.0" id="Layer_1" xmlns="http://www.w3.org/2000/svg" xmlns:xlink="http://www.w3.org/1999/xlink" x="0px" y="0px"
	 width="132.0424805px" height="33.1367188px" viewBox="0 0 132.0424805 33.1367188"
	 enable-background="new 0 0 132.0424805 33.1367188" xml:space="preserve">
<g>
	<g>
		<g>
			<path fill="#029346" d="M25.3535156,15.5703125v7.2978516h-4.9731445V3.5839844h7.5952148
				c2.5400391,0,4.4023438,0.4257813,5.5859375,1.2783203c1.1845703,0.8525391,1.7763672,2.2001953,1.7763672,4.0429688
				c0,1.2744141-0.3076172,2.3203125-0.9238281,3.1386719c-0.6152344,0.8183594-1.5429688,1.4208984-2.7832031,1.8085938
				c0.6796875,0.1552734,1.2890625,0.5058594,1.828125,1.0527344c0.5380859,0.546875,1.0820313,1.375,1.6337891,2.4863281
				l2.6992188,5.4765625h-5.2958984l-2.3505859-4.7919922c-0.4736328-0.9648438-0.9541016-1.6230469-1.4404297-1.9765625
				c-0.4863281-0.3525391-1.1347656-0.5292969-1.9438477-0.5292969H25.3535156z M27.4462891,12.1347656
				c1.0410156,0,1.7880859-0.1943359,2.2402344-0.5820313c0.4521484-0.3867188,0.6787109-1.0244141,0.6787109-1.9111328
				c0-0.8789063-0.2265625-1.5068359-0.6787109-1.8857422S28.4873047,7.1875,27.4462891,7.1875h-2.0927734v4.9472656H27.4462891z"/>
			<path fill="#029346" d="M54.9833984,15.5957031v1.3183594H44.1728516
				c0.1113281,1.0849609,0.5039063,1.8984375,1.1748047,2.4404297c0.671875,0.5429688,1.6103516,0.8144531,2.8164063,0.8144531
				c0.9726563,0,1.9697266-0.1445313,2.9902344-0.4326172c1.0205078-0.2890625,2.0683594-0.7255859,3.1445313-1.3115234v3.5654297
				c-1.09375,0.4130859-2.1865234,0.7255859-3.2802734,0.9365234c-1.09375,0.2099609-2.1875,0.3164063-3.28125,0.3164063
				c-2.6171875,0-4.6523438-0.6660156-6.1025391-1.9960938c-1.4511719-1.3300781-2.1767578-3.1972656-2.1767578-5.5996094
				c0-2.359375,0.7119141-4.2148438,2.1376953-5.5664063c1.4248047-1.3525391,3.3857422-2.0283203,5.8837891-2.0283203
				c2.2734375,0,4.0917969,0.6845703,5.4570313,2.0537109C54.3007813,11.4755859,54.9833984,13.3056641,54.9833984,15.5957031z
				 M50.2304688,14.0585938c0-0.8779297-0.2558594-1.5859375-0.7685547-2.1240234s-1.1816406-0.8076172-2.0087891-0.8076172
				c-0.8955078,0-1.6230469,0.2519531-2.1826172,0.7558594s-0.9082031,1.2294922-1.0458984,2.1757813H50.2304688z"/>
			<path fill="#029346" d="M63.1083984,20.7753906v7.5957031H58.484375V8.4013672h4.6240234v2.1181641
				c0.6376953-0.84375,1.34375-1.4658203,2.1186523-1.8662109c0.7753906-0.4003906,1.6660156-0.6005859,2.6738281-0.6005859
				c1.78125,0,3.2460938,0.7080078,4.390625,2.125c1.1464844,1.4160156,1.71875,3.2402344,1.71875,5.4697266
				c0,2.2304688-0.5722656,4.0537109-1.71875,5.4707031c-1.1445313,1.4160156-2.609375,2.125-4.390625,2.125
				c-1.0078125,0-1.8984375-0.2001953-2.6738281-0.6005859C64.4521484,22.2421875,63.7460938,21.6201172,63.1083984,20.7753906z
				 M66.1821289,11.4111328c-0.9902344,0-1.7495117,0.3642578-2.2788086,1.0917969
				c-0.5302734,0.7275391-0.7949219,1.7753906-0.7949219,3.1445313s0.2646484,2.4179688,0.7949219,3.1455078
				c0.5292969,0.7275391,1.2885742,1.0917969,2.2788086,1.0917969s1.7460938-0.3623047,2.2675781-1.0849609
				c0.5214844-0.7236328,0.78125-1.7744141,0.78125-3.1523438c0-1.3769531-0.2597656-2.4277344-0.78125-3.1513672
				S67.1723633,11.4111328,66.1821289,11.4111328z"/>
			<path fill="#029346" d="M82.6000977,15.5703125v7.2978516h-4.9726563V3.5839844h7.5957031
				c2.5390625,0,4.4023438,0.4257813,5.5859375,1.2783203S92.5844727,7.0625,92.5844727,8.9052734
				c0,1.2744141-0.3066406,2.3203125-0.9238281,3.1386719c-0.6152344,0.8183594-1.5429688,1.4208984-2.7832031,1.8085938
				c0.6796875,0.1552734,1.2890625,0.5058594,1.828125,1.0527344s1.0820313,1.375,1.6347656,2.4863281l2.6992188,5.4765625
				h-5.296875l-2.3496094-4.7919922c-0.4746094-0.9648438-0.9550781-1.6230469-1.4414063-1.9765625
				c-0.4863281-0.3525391-1.1347656-0.5292969-1.9433594-0.5292969H82.6000977z M84.6938477,12.1347656
				c1.0410156,0,1.7871094-0.1943359,2.2402344-0.5820313c0.4511719-0.3867188,0.6777344-1.0244141,0.6777344-1.9111328
				c0-0.8789063-0.2265625-1.5068359-0.6777344-1.8857422C86.480957,7.3769531,85.7348633,7.1875,84.6938477,7.1875h-2.09375
				v4.9472656H84.6938477z"/>
			<path fill="#029346" d="M111.340332,14.6142578v8.2539063h-4.6640625v-2.1445313
				c-0.6191406,0.8789063-1.3164063,1.5185547-2.0917969,1.9189453s-1.71875,0.6005859-2.828125,0.6005859
				c-1.5,0-2.7148438-0.4375-3.6503906-1.3115234c-0.9335938-0.8740234-1.4003906-2.0087891-1.4003906-3.4033203
				c0-1.6962891,0.5820313-2.9404297,1.75-3.7333984c1.1660156-0.7919922,2.9980469-1.1884766,5.4960938-1.1884766h2.7246094
				v-0.3613281c0-0.7314453-0.2890625-1.2675781-0.8652344-1.6083984c-0.5761719-0.3398438-1.4765625-0.5097656-2.6992188-0.5097656
				c-0.9902344,0-1.9121094,0.0986328-2.7636719,0.296875c-0.8535156,0.1982422-1.6445313,0.4951172-2.3769531,0.8916016V8.7890625
				c0.9902344-0.2412109,1.984375-0.4238281,2.984375-0.5488281c0.9980469-0.125,1.9960938-0.1875,2.9960938-0.1875
				c2.609375,0,4.4921875,0.5146484,5.6503906,1.5439453C110.7602539,10.625,111.340332,12.2978516,111.340332,14.6142578z
				 M104.2739258,16.3583984c-0.9648438,0-1.6894531,0.1630859-2.1757813,0.4902344
				c-0.4863281,0.328125-0.7304688,0.8095703-0.7304688,1.4472656c0,0.5859375,0.1953125,1.0439453,0.5878906,1.375
				c0.3925781,0.3320313,0.9375,0.4980469,1.6347656,0.4980469c0.8691406,0,1.6015625-0.3125,2.1953125-0.9365234
				c0.59375-0.625,0.890625-1.40625,0.890625-2.3447266v-0.5292969H104.2739258z"/>
			<path fill="#029346" d="M120.2641602,20.7753906v7.5957031h-4.6230469V8.4013672h4.6230469v2.1181641
				c0.6386719-0.84375,1.34375-1.4658203,2.1191406-1.8662109s1.6660156-0.6005859,2.6738281-0.6005859
				c1.78125,0,3.2460938,0.7080078,4.390625,2.125c1.1464844,1.4160156,1.71875,3.2402344,1.71875,5.4697266
				c0,2.2304688-0.5722656,4.0537109-1.71875,5.4707031c-1.1445313,1.4160156-2.609375,2.125-4.390625,2.125
				c-1.0078125,0-1.8984375-0.2001953-2.6738281-0.6005859S120.902832,21.6201172,120.2641602,20.7753906z M123.3383789,11.4111328
				c-0.9902344,0-1.75,0.3642578-2.2792969,1.0917969s-0.7949219,1.7753906-0.7949219,3.1445313
				s0.265625,2.4179688,0.7949219,3.1455078s1.2890625,1.0917969,2.2792969,1.0917969s1.7460938-0.3623047,2.2675781-1.0849609
				c0.5214844-0.7236328,0.78125-1.7744141,0.78125-3.1523438c0-1.3769531-0.2597656-2.4277344-0.78125-3.1513672
				S124.3286133,11.4111328,123.3383789,11.4111328z"/>
		</g>
	</g>
	<path fill="#029346" d="M8.3139648,3.5488281L2.65625,9.2060547c-1.4482422,1.4492188-2.3447266,3.4492188-2.3447266,5.6601563
		c0,4.4189453,3.5830078,8.0019531,8.0024414,8.0019531s8.0024414-3.5830078,8.0024414-8.0019531
		c0-2.2109375-0.8955078-4.2109375-2.34375-5.6582031L8.3139648,3.5488281z"/>
</g>
</svg>
